<svg width="400" height="501" viewBox="0 0 400 501" fill="none" xmlns="http://www.w3.org/2000/svg">
<path d="M0 93.7418C0 41.9783 48.2022 0 107.64 0H292.36C351.798 0 400 41.9783 400 93.7418C400 126.522 380.674 155.388 351.348 172.121C380.674 188.854 400 217.72 400 250.5C400 302.263 351.798 344.242 292.36 344.242H290C262.135 344.242 236.742 335.044 217.64 319.877V406.28C217.64 458.728 168.202 501 108.202 501C48.8764 501 0 459.12 0 407.258C0 374.478 19.3258 345.612 48.5393 328.879C19.3258 312.146 0 283.28 0 250.5C0 217.72 19.3258 188.854 48.5393 172.121C19.3258 155.388 0 126.522 0 93.7418ZM182.36 187.484H107.64C67.6405 187.484 35.2809 215.665 35.2809 250.5C35.2809 285.139 67.4157 313.321 107.191 313.516C107.303 313.516 107.528 313.516 107.64 313.516H182.36V187.484ZM217.64 250.5C217.64 285.335 250 313.516 290 313.516H292.36C332.247 313.516 364.719 285.335 364.719 250.5C364.719 215.665 332.247 187.484 292.36 187.484H290C250 187.484 217.64 215.665 217.64 250.5ZM107.64 344.242C107.528 344.242 107.303 344.242 107.191 344.242C67.4157 344.438 35.2809 372.619 35.2809 407.258C35.2809 441.996 68.0899 470.275 108.202 470.275C148.989 470.275 182.36 441.506 182.36 406.28V344.242H107.64ZM107.64 30.7254C67.6405 30.7254 35.2809 58.9066 35.2809 93.7418C35.2809 128.577 67.6405 156.758 107.64 156.758H182.36V30.7254H107.64ZM217.64 156.758H292.36C332.247 156.758 364.719 128.577 364.719 93.7418C364.719 58.9066 332.247 30.7254 292.36 30.7254H217.64V156.758Z" fill="#B7B5E0"/>
</svg>
