<svg width="220" height="220" viewBox="0 0 220 220" fill="none" xmlns="http://www.w3.org/2000/svg">
<path d="M212.168 52.6371C214.658 44.603 215.457 36.14 214.514 27.7818C213.571 19.4235 210.906 11.3513 206.688 4.0742C205.973 2.83526 204.944 1.80649 203.705 1.09132C202.466 0.376156 201.06 -0.000187951 199.63 0.000133338C190.139 -0.0197321 180.775 2.18041 172.286 6.42479C163.798 10.6692 156.419 16.8401 150.741 24.4446H126.296C120.618 16.8401 113.239 10.6692 104.751 6.42479C96.2619 2.18041 86.8981 -0.0197321 77.4074 0.000133338C75.9768 -0.000187951 74.5713 0.376156 73.3323 1.09132C72.0933 1.80649 71.0644 2.83526 70.3491 4.0742C66.1309 11.3513 63.4662 19.4235 62.5231 27.7818C61.58 36.14 62.3789 44.603 64.8694 52.6371C59.8352 61.424 57.1385 71.3552 57.037 81.4816V89.6297C57.0542 103.416 62.059 116.731 71.1274 127.116C80.1959 137.5 92.7153 144.253 106.374 146.127C100.799 153.261 97.7725 162.057 97.7778 171.111V179.259H73.3333C66.8503 179.259 60.6327 176.684 56.0485 172.1C51.4643 167.515 48.8889 161.298 48.8889 154.815C48.8889 149.465 47.8351 144.167 45.7877 139.224C43.7403 134.281 40.7393 129.79 36.9562 126.007C33.1731 122.224 28.6818 119.223 23.739 117.175C18.7961 115.128 13.4983 114.074 8.14815 114.074C5.98713 114.074 3.91461 114.933 2.38654 116.461C0.858463 117.989 0 120.061 0 122.222C0 124.383 0.858463 126.456 2.38654 127.984C3.91461 129.512 5.98713 130.37 8.14815 130.37C14.6312 130.37 20.8488 132.946 25.433 137.53C30.0172 142.114 32.5926 148.332 32.5926 154.815C32.5926 165.62 36.8849 175.983 44.5253 183.623C52.1657 191.263 62.5282 195.556 73.3333 195.556H97.7778V211.852C97.7778 214.013 98.6362 216.085 100.164 217.613C101.692 219.142 103.765 220 105.926 220C108.087 220 110.159 219.142 111.688 217.613C113.216 216.085 114.074 214.013 114.074 211.852V171.111C114.074 164.628 116.649 158.411 121.234 153.826C125.818 149.242 132.035 146.667 138.519 146.667C145.002 146.667 151.219 149.242 155.803 153.826C160.388 158.411 162.963 164.628 162.963 171.111V211.852C162.963 214.013 163.821 216.085 165.349 217.613C166.878 219.142 168.95 220 171.111 220C173.272 220 175.345 219.142 176.873 217.613C178.401 216.085 179.259 214.013 179.259 211.852V171.111C179.265 162.057 176.238 153.261 170.663 146.127C184.322 144.253 196.841 137.5 205.91 127.116C214.978 116.731 219.983 103.416 220 89.6297V81.4816C219.899 71.3552 217.202 61.424 212.168 52.6371ZM203.704 89.6297C203.704 100.435 199.411 110.797 191.771 118.438C184.131 126.078 173.768 130.37 162.963 130.37H114.074C103.269 130.37 92.9064 126.078 85.266 118.438C77.6257 110.797 73.3333 100.435 73.3333 89.6297V81.4816C73.4332 73.3337 75.8727 65.3861 80.3611 58.5853C81.1978 57.4824 81.7398 56.1846 81.9358 54.8142C82.1318 53.4438 81.9755 52.0461 81.4815 50.7529C79.3591 45.2793 78.3377 39.4408 78.4758 33.5718C78.6139 27.7028 79.9087 21.9187 82.2861 16.5511C88.9545 17.2684 95.376 19.4774 101.074 23.0143C106.773 26.5511 111.602 31.3252 115.205 36.9825C115.939 38.1304 116.949 39.0759 118.143 39.7325C119.337 40.3891 120.676 40.7358 122.039 40.7408H154.988C156.356 40.7409 157.701 40.3966 158.901 39.7398C160.101 39.083 161.116 38.1348 161.853 36.9825C165.455 31.3247 170.284 26.5503 175.982 23.0133C181.681 19.4764 188.103 17.2677 194.771 16.5511C197.145 21.9201 198.437 27.7048 198.571 33.5738C198.706 39.4428 197.681 45.2807 195.556 50.7529C195.063 52.0337 194.898 53.4173 195.076 54.7779C195.254 56.1386 195.769 57.4333 196.574 58.5445C201.107 65.3454 203.583 73.3093 203.704 81.4816V89.6297Z" fill="#741849"/>
</svg>
