<svg width="22" height="22" viewBox="0 0 22 22" fill="none" xmlns="http://www.w3.org/2000/svg">
<path d="M21.3112 0.688511C21.1226 0.50001 20.8871 0.3652 20.629 0.297968C20.371 0.230736 20.0997 0.233512 19.843 0.306011H19.829L1.83461 5.76601C1.54248 5.8502 1.28283 6.02117 1.09007 6.25627C0.897302 6.49136 0.780525 6.77948 0.75521 7.08245C0.729895 7.38541 0.797238 7.68891 0.948314 7.95274C1.09939 8.21657 1.32707 8.42826 1.60117 8.55976L9.56242 12.4373L13.4343 20.3938C13.5547 20.6508 13.7462 20.868 13.9861 21.0196C14.226 21.1713 14.5042 21.2512 14.788 21.2498C14.8312 21.2498 14.8743 21.2479 14.9174 21.2441C15.2201 21.2196 15.5081 21.1031 15.7427 20.9102C15.9773 20.7174 16.1473 20.4573 16.2299 20.1651L21.6862 2.1707C21.6862 2.16601 21.6862 2.16132 21.6862 2.15664C21.7596 1.90066 21.7636 1.62976 21.6977 1.37174C21.6318 1.11373 21.4984 0.877908 21.3112 0.688511ZM14.7965 19.7357L14.7918 19.7488V19.7423L11.0362 12.0266L15.5362 7.52664C15.6709 7.38484 15.7449 7.19603 15.7424 7.00046C15.7399 6.80488 15.6611 6.61803 15.5228 6.47973C15.3845 6.34143 15.1976 6.26262 15.002 6.26012C14.8065 6.25761 14.6177 6.33161 14.4759 6.46632L9.97586 10.9663L2.25742 7.2107H2.25086H2.26399L20.2499 1.74976L14.7965 19.7357Z" fill="#741849"/>
</svg>
