<svg width="150" height="150" viewBox="0 0 150 150" fill="none" xmlns="http://www.w3.org/2000/svg">
<path d="M100.517 43.6434C97.8216 43.642 95.1303 43.8761 92.4699 44.3431C91.5236 33.8359 87.5272 23.9144 81.0459 15.9822C74.5647 8.04999 65.9267 2.50866 56.354 0.142122C55.4943 -0.0701367 54.5986 -0.044279 53.7507 0.217271C52.9028 0.478821 52.1307 0.967495 51.5066 1.63747C50.8825 2.30744 50.427 3.13677 50.1828 4.04768C49.9385 4.9586 49.9135 5.92125 50.1101 6.84539C51.3369 12.5891 51.3436 18.5561 50.1295 24.3029C48.9154 30.0498 46.5119 35.4287 43.0975 40.04C39.6831 44.6513 35.3457 48.3764 30.4075 50.9384C25.4693 53.5005 20.0573 54.8336 14.5737 54.8388C11.8153 54.8392 9.06559 54.5059 6.37654 53.8452C5.51618 53.6325 4.61963 53.6583 3.77108 53.9201C2.92254 54.182 2.14985 54.6714 1.52559 55.3422C0.901335 56.0131 0.44599 56.8435 0.202324 57.7554C-0.0413417 58.6674 -0.065332 59.6309 0.132608 60.5555C1.5319 67.04 4.10953 73.1634 7.71741 78.5742C11.3253 83.9849 15.8923 88.5763 21.1562 92.0846C17.4542 97.5047 15.222 103.921 14.7074 110.622C14.1928 117.323 15.4159 124.046 18.2411 130.045C21.0662 136.044 25.3828 141.085 30.7119 144.607C36.0409 148.13 42.174 149.996 48.4303 150H100.517C113.641 150 126.227 144.397 135.507 134.424C144.787 124.452 150 110.925 150 96.8217C150 82.7179 144.787 69.1918 135.507 59.2189C126.227 49.2461 113.641 43.6434 100.517 43.6434ZM12.8614 66.0342C13.4278 66.0342 14.0008 66.0342 14.5737 66.0342C27.0024 66.0194 38.9181 60.7069 47.7065 51.2621C56.4949 41.8173 61.4383 29.0117 61.4521 15.6548C61.4521 15.032 61.4521 14.4093 61.4521 13.7866C67.45 16.803 72.5637 21.529 76.2371 27.4505C79.9104 33.3721 82.0029 40.2626 82.2869 47.3729C75.9249 50.0879 70.1538 54.187 65.3359 59.4129C60.5181 64.6387 56.7574 70.8785 54.2901 77.7405C49.8863 76.9216 45.3753 77.0477 41.0171 78.1118C36.659 79.1758 32.5399 81.1566 28.8977 83.9399C21.8923 79.9905 16.266 73.7083 12.8614 66.0342ZM100.517 138.805H48.4303C45.2245 138.798 42.054 138.085 39.1148 136.71C36.1756 135.334 33.5303 133.325 31.3423 130.807C29.1543 128.289 27.4702 125.315 26.3941 122.07C25.3181 118.825 24.8729 115.377 25.0862 111.939C25.2995 108.501 26.1666 105.147 27.6341 102.084C29.1015 99.0212 31.1381 96.3142 33.6178 94.1306C36.0974 91.9471 38.9676 90.3334 42.0507 89.3893C45.1338 88.4453 48.3643 88.1909 51.5425 88.642C51.3016 90.3003 51.1323 91.9936 51.0412 93.701C51.0018 94.4361 51.0976 95.1723 51.323 95.8676C51.5485 96.5629 51.8991 97.2037 52.355 97.7534C52.8108 98.3031 53.363 98.7509 53.9799 99.0713C54.5968 99.3916 55.2664 99.5783 55.9504 99.6205C56.6344 99.6628 57.3195 99.5599 57.9665 99.3176C58.6135 99.0754 59.2097 98.6985 59.7212 98.2086C60.2327 97.7187 60.6494 97.1253 60.9475 96.4623C61.2456 95.7994 61.4192 95.0798 61.4586 94.3447C61.6047 91.5527 62.0148 88.7839 62.6826 86.0811C62.6826 85.9691 62.7412 85.8572 62.7607 85.7452C64.6752 78.1844 68.5185 71.3494 73.8566 66.012C79.1947 60.6746 85.815 57.0473 92.97 55.5399C100.125 54.0324 107.53 54.7048 114.348 57.481C121.166 60.2572 127.126 65.0268 131.555 71.2511C135.985 77.4753 138.706 84.9064 139.413 92.7053C140.12 100.504 138.784 108.36 135.556 115.386C132.328 122.412 127.336 128.328 121.145 132.466C114.953 136.604 107.809 138.8 100.517 138.805Z" fill="white"/>
</svg>
