<svg width="220" height="220" viewBox="0 0 220 220" fill="none" xmlns="http://www.w3.org/2000/svg">
<path d="M203.077 0H16.9231C12.4348 0 8.13035 1.78296 4.95665 4.95665C1.78296 8.13035 0 12.4348 0 16.9231V203.077C0 207.565 1.78296 211.87 4.95665 215.043C8.13035 218.217 12.4348 220 16.9231 220H203.077C207.565 220 211.87 218.217 215.043 215.043C218.217 211.87 220 207.565 220 203.077V16.9231C220 12.4348 218.217 8.13035 215.043 4.95665C211.87 1.78296 207.565 0 203.077 0ZM203.077 203.077H16.9231V16.9231H203.077V203.077ZM76.1538 93.0769V160.769C76.1538 163.013 75.2624 165.166 73.6755 166.752C72.0887 168.339 69.9364 169.231 67.6923 169.231C65.4482 169.231 63.2959 168.339 61.7091 166.752C60.1222 165.166 59.2308 163.013 59.2308 160.769V93.0769C59.2308 90.8328 60.1222 88.6806 61.7091 87.0937C63.2959 85.5069 65.4482 84.6154 67.6923 84.6154C69.9364 84.6154 72.0887 85.5069 73.6755 87.0937C75.2624 88.6806 76.1538 90.8328 76.1538 93.0769ZM169.231 122.692V160.769C169.231 163.013 168.339 165.166 166.752 166.752C165.166 168.339 163.013 169.231 160.769 169.231C158.525 169.231 156.373 168.339 154.786 166.752C153.199 165.166 152.308 163.013 152.308 160.769V122.692C152.308 117.082 150.079 111.701 146.112 107.734C142.145 103.767 136.764 101.538 131.154 101.538C125.543 101.538 120.163 103.767 116.196 107.734C112.229 111.701 110 117.082 110 122.692V160.769C110 163.013 109.109 165.166 107.522 166.752C105.935 168.339 103.783 169.231 101.538 169.231C99.2943 169.231 97.1421 168.339 95.5553 166.752C93.9684 165.166 93.0769 163.013 93.0769 160.769V93.0769C93.0874 91.0043 93.8583 89.0077 95.2432 87.4657C96.6282 85.9237 98.5309 84.9437 100.59 84.7115C102.65 84.4793 104.723 85.0112 106.417 86.2061C108.11 87.401 109.306 89.176 109.778 91.1942C115.502 87.3112 122.176 85.0606 129.082 84.6843C135.989 84.308 142.868 85.8202 148.98 89.0583C155.092 92.2965 160.206 97.1384 163.774 103.064C167.342 108.99 169.228 115.775 169.231 122.692ZM80.3846 63.4615C80.3846 65.9718 79.6402 68.4258 78.2456 70.513C76.8509 72.6002 74.8687 74.2271 72.5494 75.1877C70.2302 76.1484 67.6782 76.3997 65.2162 75.91C62.7541 75.4202 60.4925 74.2114 58.7175 72.4364C56.9424 70.6613 55.7336 68.3998 55.2439 65.9377C54.7541 63.4756 55.0055 60.9236 55.9661 58.6044C56.9268 56.2852 58.5536 54.3029 60.6408 52.9083C62.7281 51.5136 65.182 50.7692 67.6923 50.7692C71.0585 50.7692 74.2869 52.1064 76.6671 54.4867C79.0474 56.867 80.3846 60.0953 80.3846 63.4615Z" fill="#741849"/>
</svg>
