<svg width="150" height="150" viewBox="0 0 150 150" fill="none" xmlns="http://www.w3.org/2000/svg">
<path d="M149.434 141.315L111.933 57.3148C111.488 56.3183 110.804 55.4803 109.958 54.8946C109.111 54.309 108.136 53.9987 107.142 53.9987C106.147 53.9987 105.172 54.309 104.325 54.8946C103.479 55.4803 102.795 56.3183 102.35 57.3148L87.8119 89.8872C76.4164 89.1695 65.4521 84.761 56.2511 77.1973C67.0465 64.2858 73.5875 47.6369 74.7938 29.9999H91.0732C92.494 29.9999 93.8566 29.3678 94.8613 28.2425C95.866 27.1173 96.4304 25.5912 96.4304 23.9999C96.4304 22.4086 95.866 20.8825 94.8613 19.7573C93.8566 18.6321 92.494 17.9999 91.0732 17.9999H53.5724V5.99998C53.5724 4.40869 53.008 2.88257 52.0033 1.75735C50.9987 0.632139 49.636 0 48.2152 0C46.7944 0 45.4317 0.632139 44.4271 1.75735C43.4224 2.88257 42.858 4.40869 42.858 5.99998V17.9999H5.35724C3.93642 17.9999 2.57378 18.6321 1.5691 19.7573C0.564422 20.8825 0 22.4086 0 23.9999C0 25.5912 0.564422 27.1173 1.5691 28.2425C2.57378 29.3678 3.93642 29.9999 5.35724 29.9999H64.0392C62.846 44.7047 57.2727 58.5331 48.2152 69.2623C42.5711 62.5923 38.2369 54.6723 35.4917 46.0123C35.266 45.2568 34.9082 44.5591 34.4392 43.9601C33.9701 43.3611 33.3992 42.8727 32.7598 42.5234C32.1204 42.1741 31.4253 41.971 30.7151 41.9258C30.0048 41.8806 29.2937 41.9943 28.6231 42.2603C27.9525 42.5262 27.3359 42.9391 26.8093 43.4748C26.2827 44.0105 25.8567 44.6583 25.556 45.3804C25.2554 46.1025 25.0861 46.8844 25.0582 47.6805C25.0303 48.4767 25.1442 49.2711 25.3933 50.0173C28.5894 60.1413 33.6239 69.4137 40.1793 77.2497C30.086 85.5566 17.8827 90.0248 5.35724 89.9997C3.93642 89.9997 2.57378 90.6318 1.5691 91.7571C0.564422 92.8823 0 94.4084 0 95.9997C0 97.591 0.564422 99.1171 1.5691 100.242C2.57378 101.368 3.93642 102 5.35724 102C20.8972 102.019 35.9917 96.1866 48.2152 85.4397C58.1902 94.1687 70.0979 99.6935 82.6623 101.422L64.8494 141.315C64.5346 142.019 64.3468 142.786 64.2967 143.572C64.2467 144.358 64.3353 145.148 64.5576 145.895C65.0066 147.405 65.9727 148.654 67.2435 149.366C68.5142 150.078 69.9855 150.195 71.3337 149.693C72.6818 149.19 73.7964 148.108 74.4322 146.685L83.6668 126H130.616L139.851 146.685C140.296 147.681 140.981 148.52 141.828 149.105C142.675 149.691 143.65 150 144.646 150C145.559 149.999 146.457 149.737 147.254 149.239C148.051 148.74 148.721 148.022 149.201 147.152C149.681 146.282 149.954 145.289 149.995 144.267C150.035 143.245 149.842 142.229 149.434 141.315ZM89.024 114L107.145 73.4173L125.259 114H89.024Z" fill="white"/>
</svg>
