<svg width="60" height="60" viewBox="0 0 60 60" fill="none" xmlns="http://www.w3.org/2000/svg">
<path d="M41.5242 9.2379C41.5242 8.62539 41.7676 8.03797 42.2007 7.60486C42.6338 7.17175 43.2212 6.92843 43.8337 6.92843H48.4526V2.3095C48.4526 1.69699 48.696 1.10957 49.1291 0.67646C49.5622 0.243351 50.1496 3.28165e-05 50.7621 3.28165e-05C51.3746 3.28165e-05 51.962 0.243351 52.3951 0.67646C52.8283 1.10957 53.0716 1.69699 53.0716 2.3095V6.92843H57.6905C58.303 6.92843 58.8904 7.17175 59.3235 7.60486C59.7566 8.03797 60 8.62539 60 9.2379C60 9.85041 59.7566 10.4378 59.3235 10.8709C58.8904 11.304 58.303 11.5474 57.6905 11.5474H53.0716V16.1663C53.0716 16.7788 52.8283 17.3662 52.3951 17.7993C51.962 18.2324 51.3746 18.4758 50.7621 18.4758C50.1496 18.4758 49.5622 18.2324 49.1291 17.7993C48.696 17.3662 48.4526 16.7788 48.4526 16.1663V11.5474H43.8337C43.2212 11.5474 42.6338 11.304 42.2007 10.8709C41.7676 10.4378 41.5242 9.85041 41.5242 9.2379ZM59.5843 25.0231C60.6394 31.2949 59.6739 37.7398 56.8274 43.4271C53.9809 49.1145 49.4005 53.7501 43.7477 56.6646C38.0948 59.5791 31.662 60.6216 25.378 59.6418C19.094 58.6619 13.284 55.7103 8.78682 51.2132C4.28966 46.716 1.33807 40.906 0.358218 34.622C-0.621636 28.338 0.420946 21.9052 3.33543 16.2523C6.24992 10.5995 10.8855 6.01912 16.5729 3.17259C22.2602 0.326056 28.7051 -0.639357 34.9769 0.415737C35.5764 0.521755 36.1098 0.8602 36.461 1.35745C36.8123 1.85471 36.953 2.47054 36.8525 3.07099C36.7521 3.67145 36.4186 4.20795 35.9246 4.5638C35.4306 4.91964 34.8161 5.06605 34.2148 4.97116C30.572 4.35836 26.8394 4.54672 23.2768 5.52314C19.7142 6.49956 16.4071 8.24057 13.5858 10.625C10.7645 13.0095 8.49663 15.9801 6.94009 19.3301C5.38354 22.6801 4.5757 26.3291 4.57277 30.0231C4.5673 36.2419 6.85294 42.2448 10.9931 46.8851C13.5688 43.1526 17.1906 40.2651 21.403 38.5854C19.1403 36.8032 17.4891 34.3602 16.6792 31.5961C15.8693 28.832 15.9408 25.8842 16.8839 23.1627C17.827 20.4411 19.5947 18.0811 21.9413 16.4108C24.2878 14.7405 27.0966 13.8429 29.9769 13.8429C32.8572 13.8429 35.666 14.7405 38.0125 16.4108C40.3591 18.0811 42.1268 20.4411 43.0699 23.1627C44.013 25.8842 44.0845 28.832 43.2746 31.5961C42.4647 34.3602 40.8135 36.8032 38.5508 38.5854C42.7632 40.2651 46.385 43.1526 48.9607 46.8851C53.1009 42.2448 55.3865 36.2419 55.381 30.0231C55.3811 28.6032 55.2633 27.1857 55.0288 25.7852C54.9757 25.4848 54.9826 25.1768 55.0492 24.8791C55.1158 24.5814 55.2407 24.2998 55.4167 24.0506C55.5927 23.8014 55.8164 23.5896 56.0747 23.4273C56.3331 23.265 56.621 23.1556 56.9219 23.1052C57.2228 23.0549 57.5307 23.0647 57.8278 23.134C58.1249 23.2033 58.4054 23.3308 58.6529 23.5092C58.9005 23.6875 59.1102 23.9131 59.2701 24.1729C59.4299 24.4328 59.5367 24.7217 59.5843 25.0231ZM29.9769 36.9515C31.804 36.9515 33.59 36.4097 35.1092 35.3946C36.6283 34.3796 37.8124 32.9368 38.5116 31.2488C39.2108 29.5608 39.3937 27.7034 39.0373 25.9114C38.6808 24.1194 37.801 22.4734 36.5091 21.1815C35.2171 19.8895 33.5711 19.0097 31.7791 18.6533C29.9872 18.2968 28.1297 18.4798 26.4417 19.179C24.7537 19.8781 23.311 21.0622 22.2959 22.5813C21.2808 24.1005 20.739 25.8866 20.739 27.7136C20.739 30.1637 21.7123 32.5133 23.4447 34.2458C25.1772 35.9782 27.5269 36.9515 29.9769 36.9515ZM29.9769 55.4272C35.6159 55.4329 41.095 53.553 45.5427 50.0866C43.872 47.4737 41.5704 45.3234 38.8501 43.8339C36.1298 42.3444 33.0783 41.5637 29.9769 41.5637C26.8755 41.5637 23.824 42.3444 21.1037 43.8339C18.3834 45.3234 16.0818 47.4737 14.4111 50.0866C18.8588 53.553 24.3379 55.4329 29.9769 55.4272Z" fill="white"/>
</svg>
